<svg xmlns="http://www.w3.org/2000/svg" viewBox="0 0 169.38 145.18"><g id="Layer_2" data-name="Layer 2"><g id="Layer_1-2" data-name="Layer 1"><rect x="27.22" y="24.2" width="9.07" height="120.98"/><rect x="133.08" y="24.2" width="9.07" height="120.98"/><path d="M148.21,34.2a10.39,10.39,0,0,1,7.86,3.31,10.36,10.36,0,0,1,3.31,7.86V124a11.3,11.3,0,0,1-11.17,11.17h-127a10.38,10.38,0,0,1-7.86-3.31A10.38,10.38,0,0,1,10,124V45.37a10.36,10.36,0,0,1,3.31-7.86,10.38,10.38,0,0,1,7.86-3.31h127m0-10h-127A20.41,20.41,0,0,0,6.24,30.43,20.38,20.38,0,0,0,0,45.37V124a20.36,20.36,0,0,0,6.24,14.93,20.38,20.38,0,0,0,14.93,6.24h127A21.31,21.31,0,0,0,169.38,124V45.37a20.38,20.38,0,0,0-6.24-14.94,20.41,20.41,0,0,0-14.93-6.23Z"/><path d="M60.49,12.1h48.4V24.2H121V9.07a8.74,8.74,0,0,0-2.64-6.42A8.75,8.75,0,0,0,111.91,0H57.47A8.73,8.73,0,0,0,51,2.65a8.75,8.75,0,0,0-2.65,6.42V24.2h12.1Z"/></g></g></svg>