<svg xmlns="http://www.w3.org/2000/svg" viewBox="0 0 168.68 146.19"><g id="Layer_2" data-name="Layer 2"><g id="Layer_1-2" data-name="Layer 1"><path d="M106.83,10a5.58,5.58,0,0,1,3.35,1.3,6.76,6.76,0,0,1,2.52,2.82L117.15,26l2.43,6.49h26.61A11.63,11.63,0,0,1,155,36.15,11.61,11.61,0,0,1,158.68,45V123.7a12.5,12.5,0,0,1-12.49,12.49H22.49a11.65,11.65,0,0,1-8.83-3.66A11.63,11.63,0,0,1,10,123.7V45a11.65,11.65,0,0,1,3.66-8.83,11.65,11.65,0,0,1,8.83-3.66H49.1L51.53,26,56,14.12a6.69,6.69,0,0,1,2.52-2.82A5.56,5.56,0,0,1,61.85,10h45m0-10h-45a15.65,15.65,0,0,0-9.09,3.12,16.29,16.29,0,0,0-6.11,7.42l-4.48,12H22.49a21.67,21.67,0,0,0-15.9,6.59A21.67,21.67,0,0,0,0,45V123.7a21.67,21.67,0,0,0,6.59,15.9,21.63,21.63,0,0,0,15.9,6.59h123.7a22.5,22.5,0,0,0,22.49-22.49V45a21.63,21.63,0,0,0-6.59-15.9,21.67,21.67,0,0,0-15.9-6.59H126.51L122,10.54a16.32,16.32,0,0,0-6.1-7.42A15.65,15.65,0,0,0,106.83,0Z"/><path d="M84.34,59a25.33,25.33,0,0,1,25.3,25.3,25.33,25.33,0,0,1-25.3,25.3A25.33,25.33,0,0,1,59,84.34,25.33,25.33,0,0,1,84.34,59m0-10A35.34,35.34,0,0,0,49,84.34a35.34,35.34,0,0,0,35.3,35.3,35.34,35.34,0,0,0,35.3-35.3A35.34,35.34,0,0,0,84.34,49Z"/></g></g></svg>