<svg xmlns="http://www.w3.org/2000/svg" viewBox="0 0 195.16 195.16"><defs><style>.cls-1{fill:#231f20;}</style></defs><g id="Layer_2" data-name="Layer 2"><g id="Layer_1-2" data-name="Layer 1"><path class="cls-1" d="M107.68,111.22v28.72c6.43-2.71,10.18-8,10.18-14.67C117.86,119.18,114.61,114.66,107.68,111.22Z"/><path class="cls-1" d="M77.46,68.14c0,5.71,3.37,10.1,10,13.08V53.3a17.28,17.28,0,0,0-4.81,3.13A15.75,15.75,0,0,0,77.46,68.14Z"/><path class="cls-1" d="M97.58,0a97.58,97.58,0,1,0,97.58,97.58A97.58,97.58,0,0,0,97.58,0Zm30.47,152.38a48.75,48.75,0,0,1-20.37,8.29v12.67l-20.2,10.11V161C72.89,159,61.77,151.92,56,141.08l-1-1.81,21.41-10.75.86,1.89a19.21,19.21,0,0,0,10.13,9.39V104.46l-1.93-.59c-12.37-3.33-21.3-8.77-26.62-16.17a31.79,31.79,0,0,1-5.84-19c0-18.74,13.74-33.26,34.39-36.59V21.82l20.2-10.11V32.5C120,35,129.39,41.86,134.29,51.84l.87,1.78-21.47,10.8-.78-2.11a15.43,15.43,0,0,0-5.23-7.14v32.7c24.08,7.63,34.39,18.41,34.39,35.88C142.07,135.93,137.35,145.57,128.05,152.38Z"/></g></g></svg>