<svg xmlns="http://www.w3.org/2000/svg" viewBox="0 0 185.36 136.06"><g id="Layer_2" data-name="Layer 2"><g id="Layer_1-2" data-name="Layer 1"><path d="M67,6.13A19.83,19.83,0,0,0,52.28,0H20.79A19.81,19.81,0,0,0,6.13,6.13,20.09,20.09,0,0,0,0,20.79v94.47a19.83,19.83,0,0,0,6.13,14.67,19.85,19.85,0,0,0,14.66,6.13H127.86a31.19,31.19,0,0,0,13.24-3.28,30.79,30.79,0,0,0,11-8.27l29-35.72a17.64,17.64,0,0,0,4.25-11A14.4,14.4,0,0,0,184,71.61a14,14,0,0,0-6.06-6.37A18.87,18.87,0,0,0,168.8,63H148.65V46a19.81,19.81,0,0,0-6.13-14.67,19.85,19.85,0,0,0-14.66-6.13H73.08v-4.4A20.12,20.12,0,0,0,67,6.13Zm101.85,67c5.62,0,6.46,2.94,6.46,4.69a7.51,7.51,0,0,1-2,4.63l-28.93,35.72A23.75,23.75,0,0,1,127.86,126H20.79c-5.62,0-6.46-2.94-6.46-4.69a8.22,8.22,0,0,1,2-4.69l29-35.76a21.71,21.71,0,0,1,7.47-5.51,21.14,21.14,0,0,1,8.95-2.23ZM127.86,35.29A10.67,10.67,0,0,1,138.56,46V63H61.73a30.72,30.72,0,0,0-13.24,3.27,32.27,32.27,0,0,0-11,8.28L10.1,108.25V20.79A10.65,10.65,0,0,1,20.79,10.1H52.28A10.65,10.65,0,0,1,63,20.79v6.3a8.16,8.16,0,0,0,8.2,8.2Z"/></g></g></svg>