<svg xmlns="http://www.w3.org/2000/svg" viewBox="0 0 195.16 195.16"><defs><style>.cls-1{fill:#231f20;}</style></defs><g id="Layer_2" data-name="Layer 2"><g id="Layer_1-2" data-name="Layer 1"><path class="cls-1" d="M97.58,0a97.58,97.58,0,1,0,97.58,97.58A97.58,97.58,0,0,0,97.58,0Zm3.24,165.7c-40.51,0-69.36-30.95-69.36-68,0-37.45,29.62-68.21,67.65-68.21,20.82,0,39,8.79,50.45,22.54L122.41,65.68a36.44,36.44,0,0,0-23.3-8.32c-21.22,0-37.47,18.34-37.47,40.31,0,21.6,15.87,41.28,38.42,41.28,14.72,0,30.95-8.21,30.95-21.21H94V93.47H163.7C163.7,143.34,136,165.7,100.82,165.7Z"/></g></g></svg>