<svg xmlns="http://www.w3.org/2000/svg" viewBox="0 0 443.59 105.92"><defs><style>.cls-1{fill:#221f20;}</style></defs><g id="Layer_2" data-name="Layer 2"><g id="Layer_1-2" data-name="Layer 1"><path class="cls-1" d="M62.82,48.88c0,18.6-13.42,30.3-28.21,30.3-6.52,0-14.41-2.7-18.47-8.62V97.8L0,105.92V28.3l16.14-8.12v7c4.06-5.79,12-8.5,18.47-8.5C49.4,18.7,62.82,30.53,62.82,48.88Zm-15,.13A15,15,0,0,0,33.05,33.73a15.22,15.22,0,0,0,0,30.43A14.91,14.91,0,0,0,47.83,49Z"/><path class="cls-1" d="M122.24,67.61c-5.42,7.26-15.4,11.57-25.5,11.57C79,79.18,66.07,66.74,66.07,49c0-18.61,14.16-30.31,30.55-30.31S126.55,30.4,126.55,48c0,1.6-.12,3.57-.37,6.16H82.94C84.67,61,90.09,64.9,97.73,64.9a20.7,20.7,0,0,0,11.76-3.76Zm-11.95-23.9c-.49-6.78-6-11.09-13.3-11.09-6.66,0-12.32,3.33-14,11.09Z"/><path class="cls-1" d="M172,37.91a15.62,15.62,0,0,0-10.55-4.18c-9.11,0-15.27,6.65-15.27,15s6.16,15.4,15.27,15.4A15.62,15.62,0,0,0,172,60l13.63,6.87a29.14,29.14,0,0,1-24.27,12.31c-16.75,0-31.54-12.19-31.54-30.42S144.58,18.7,161.33,18.7A29.15,29.15,0,0,1,185.6,31Z"/><path class="cls-1" d="M229.73,28.3l16.14-8.12V77.71H229.73V68.35c-2.46,7.51-11.58,10.83-17.24,10.83-15,0-22.92-10.1-22.79-27.34V28.3l16.14-8.12V51c0,9,5.41,13.18,11,13.18,5.79,0,12.93-3.21,12.93-13.55Z"/><path class="cls-1" d="M309.45,46.17V77.71H293.32V47c0-9-5.42-13.05-11-13.05-5.78,0-12.93,3.08-12.93,13.55V77.71H253.28V28.3l16.14-8.12v9.73C271.88,22.15,281,18.7,286.66,18.7,301.69,18.7,309.58,28.93,309.45,46.17Z"/><path class="cls-1" d="M316.87,77.71V26.8L333,18.69v59Z"/><path class="cls-1" d="M379.22,20.18V32.74H367v45H350.89v-45H340.42V20.18h10.47V8.1L367,0V20.18Z"/><path class="cls-1" d="M426.22,20.18h17.37l-35.48,85.74-14.32-7.21,10.75-26.42L381.75,20.18h17.74L413,53.44Z"/></g></g></svg>