<svg xmlns="http://www.w3.org/2000/svg" viewBox="0 0 195.16 195.16"><defs><style>.cls-1{fill:#231f20;}</style></defs><g id="Layer_2" data-name="Layer 2"><g id="Layer_1-2" data-name="Layer 1"><path class="cls-1" d="M97.58,0a97.58,97.58,0,1,0,97.58,97.58A97.58,97.58,0,0,0,97.58,0ZM96.52,165.7c-22.32,0-39.22-10.38-45.21-26.83L78.94,125c0,8.42,8.42,14.91,18.73,14.91,9.74,0,17.19-5,17.19-13.57,0-5.15-2.86-9.92-14.51-13.75L84.68,107.8c-29.05-7.83-34.59-25.61-34.59-38,0-23.69,20.26-40.31,46.43-40.31,20.21,0,36.62,9.69,42.35,26.72l-27.82,14c0-7.84-4.79-14.53-15.11-14.53-9.35,0-15.48,6.32-15.48,13.57,0,2.67.78,8.6,13,12l13.76,4.4c18.71,5.73,37.84,15.28,37.84,39.17C145.07,153.09,120.61,165.7,96.52,165.7Z"/></g></g></svg>