<svg xmlns="http://www.w3.org/2000/svg" viewBox="0 0 120.97 145.02"><g id="Layer_2" data-name="Layer 2"><g id="Layer_1-2" data-name="Layer 1"><path d="M65.48,15a25.21,25.21,0,0,1,18.59,7.71A25.06,25.06,0,0,1,91.8,41.32a24.9,24.9,0,0,1-7.73,18.47A25.21,25.21,0,0,1,65.48,67.5,25.21,25.21,0,0,1,46.9,59.79a24.9,24.9,0,0,1-7.73-18.47A25.06,25.06,0,0,1,46.9,22.71,25.21,25.21,0,0,1,65.48,15M33.25,84.13l1.82,1.13c2.59,1.61,4.37,2.65,5.59,3.29,1,.52,2.56,1.33,4.7,2.42a42.77,42.77,0,0,0,6.75,2.88c1.64.51,3.51,1,5.71,1.48a34.59,34.59,0,0,0,15.33,0c2.2-.49,4.07-1,5.71-1.48A42.77,42.77,0,0,0,85.61,91c2.14-1.09,3.7-1.9,4.7-2.42,1.22-.64,3-1.68,5.59-3.29.68-.43,1.26-.79,1.75-1.08a15.24,15.24,0,0,1,4.75,1.29,12.36,12.36,0,0,1,4.68,3.68,34.08,34.08,0,0,1,4.28,7.27,40.25,40.25,0,0,1,2.67,9.07c.69,3.84,1.19,7.43,1.49,10.67s.45,6.62.45,10.12a16.56,16.56,0,0,1-3.45,10.46,7.69,7.69,0,0,1-6.81,3.28H25.25a7.69,7.69,0,0,1-6.8-3.28A16.56,16.56,0,0,1,15,126.28c0-4.12.19-8.19.58-12.08A78.29,78.29,0,0,1,17.88,102,41.64,41.64,0,0,1,22,91.72a16.62,16.62,0,0,1,5.56-5.64,13.15,13.15,0,0,1,5.74-2M65.48,5A35.08,35.08,0,0,0,39.85,15.62a34.88,34.88,0,0,0-10.68,25.7A34.75,34.75,0,0,0,39.85,66.88,35.08,35.08,0,0,0,65.48,77.5,35.09,35.09,0,0,0,91.12,66.88,34.75,34.75,0,0,0,101.8,41.32a34.88,34.88,0,0,0-10.68-25.7A35.09,35.09,0,0,0,65.48,5ZM95.1,74q-1,.57-4.47,2.73t-5,2.93l-4.61,2.38a34.75,34.75,0,0,1-5.17,2.23q-2,.63-4.89,1.26a24.45,24.45,0,0,1-11,0q-2.86-.63-4.89-1.26a34.31,34.31,0,0,1-5.17-2.23c-2.1-1.07-3.63-1.87-4.61-2.38s-2.63-1.49-5-2.93S36.52,74.41,35.87,74h-.7a23.67,23.67,0,0,0-13.06,3.64,26.64,26.64,0,0,0-8.8,9,51.46,51.46,0,0,0-5.1,12.78,88.51,88.51,0,0,0-2.58,13.76Q5,119.57,5,126.28a26.45,26.45,0,0,0,5.52,16.55A17.62,17.62,0,0,0,25.25,150h80.46a17.62,17.62,0,0,0,14.74-7.19A26.45,26.45,0,0,0,126,126.28q0-5.73-.49-11t-1.61-11.52a50,50,0,0,0-3.35-11.32A44.77,44.77,0,0,0,115,83a22.13,22.13,0,0,0-8.38-6.63A27,27,0,0,0,95.1,74Z" transform="translate(-5 -5)"/></g></g></svg>